<svg height="512pt" viewBox="-11 0 512 512" width="512pt" xmlns="http://www.w3.org/2000/svg"><path d="m29.847656 138.542969h431.265625v345.292969h-431.265625zm0 0" fill="#fff5f5"/><path d="m427.875 138.542969h33.234375v345.292969h-33.234375zm0 0" fill="#efe2dd"/><path d="m40.914062 223.726562c-22.597656 0-40.914062-18.320312-40.914062-40.914062v-28.183594h81.824219v28.183594c0 22.59375-18.316407 40.914062-40.910157 40.914062zm0 0" fill="#fc2b3a"/><path d="m122.738281 223.726562c-22.59375 0-40.910156-18.320312-40.910156-40.914062v-28.183594h81.824219v28.183594c0 22.59375-18.316406 40.914062-40.914063 40.914062zm0 0" fill="#ff646f"/><path d="m204.566406 223.726562c-22.59375 0-40.914062-18.320312-40.914062-40.914062v-28.183594h81.828125v28.183594c0 22.59375-18.320313 40.914062-40.914063 40.914062zm0 0" fill="#fc2b3a"/><path d="m286.394531 223.726562c-22.597656 0-40.914062-18.320312-40.914062-40.914062v-28.183594h81.824219v28.183594c.003906 22.59375-18.316407 40.914062-40.910157 40.914062zm0 0" fill="#ff646f"/><path d="m368.21875 223.726562c-22.59375 0-40.910156-18.320312-40.910156-40.914062v-28.183594h81.824218v28.183594c0 22.59375-18.316406 40.914062-40.914062 40.914062zm0 0" fill="#fc2b3a"/><path d="m450.046875 223.726562c-22.597656 0-40.914063-18.320312-40.914063-40.914062v-28.183594h81.828126v28.183594c0 22.59375-18.316407 40.914062-40.914063 40.914062zm0 0" fill="#ff646f"/><path d="m423.25 66.148438h-355.539062c-18.253907 0-34.742188 10.90625-41.882813 27.707031l-25.828125 60.773437h490.960938l-25.832032-60.773437c-7.140625-16.800781-23.625-27.707031-41.878906-27.707031zm0 0" fill="#ff4755"/><path d="m458.253906 154.628906v28.183594c0 16.78125-10.109375 31.191406-24.5625 37.503906 5.011719 2.1875 10.539063 3.410156 16.355469 3.410156 22.597656 0 40.914063-18.320312 40.914063-40.914062v-28.183594zm0 0" fill="#ff4755"/><path d="m465.128906 93.851562c-7.140625-16.796874-23.625-27.707031-41.878906-27.707031h-32.707031c18.253906.003907 34.738281 10.910157 41.878906 27.707031l25.828125 60.773438h32.710938zm0 0" fill="#fc2b3a"/><path d="m282.492188 423.347656h-202.46875c-6.738282 0-12.199219-5.460937-12.199219-12.203125v-117.347656c0-6.738281 5.460937-12.199219 12.199219-12.199219h202.46875c6.738281 0 12.199218 5.460938 12.199218 12.199219v117.347656c0 6.738281-5.460937 12.203125-12.199218 12.203125zm0 0" fill="#6bdae8"/><path d="m427.910156 500.046875h-98.726562v-204.941406c0-7.460938 6.046875-13.507813 13.507812-13.507813h71.710938c7.460937 0 13.507812 6.046875 13.507812 13.507813zm0 0" fill="#6bdae8"/><path d="m376.308594 105.234375c0-13.960937 4.292968-13.960937 4.292968-27.925781 0-13.960938-4.292968-13.960938-4.292968-27.917969 0-10.761719 2.546875-13.234375 3.71875-20.191406.5-2.992188-1.8125-5.691407-4.609375-5.332031-30.582031 3.933593-54.128907 37.671874-54.128907 37.671874l-.085937.097657v31.351562l.085937.097657s23.550782 33.738281 54.132813 37.671874c2.792969.359376 5.109375-2.339843 4.605469-5.332031-1.171875-6.957031-3.71875-9.429687-3.71875-20.191406zm0 0" fill="#cc98e8"/><path d="m376.308594 105.234375c0-13.960937 4.292968-13.960937 4.292968-27.925781 0-13.960938-4.292968-13.960938-4.292968-27.917969 0-10.761719 2.546875-13.234375 3.714844-20.191406.503906-2.992188-1.808594-5.691407-4.605469-5.332031-11.71875 1.507812-22.398438 7.398437-31.121094 14.082031-.773437 2.816406-1.402344 6.109375-1.402344 11.441406 0 13.960937 4.296875 13.960937 4.296875 27.921875s-4.296875 13.960938-4.296875 27.921875c0 5.332031.628907 8.628906 1.402344 11.445313 8.722656 6.683593 19.402344 12.574218 31.121094 14.082031 2.796875.359375 5.109375-2.339844 4.605469-5.332031-1.167969-6.960938-3.714844-9.433594-3.714844-20.195313zm0 0" fill="#bf80e2"/><path d="m115.542969 23.867188c-2.796875-.359376-5.109375 2.339843-4.609375 5.332031 1.171875 6.957031 3.71875 9.429687 3.71875 20.191406 0 13.960937-4.292969 13.960937-4.292969 27.917969 0 13.964844 4.292969 13.964844 4.292969 27.925781 0 10.761719-2.550782 13.234375-3.71875 20.195313-.5 2.992187 1.8125 5.6875 4.609375 5.332031 30.582031-3.9375 54.128906-37.675781 54.128906-37.675781l.085937-.09375v-31.355469l-.085937-.09375s-23.546875-33.742188-54.128906-37.675781zm0 0" fill="#cc98e8"/><path d="m322.792969 77.3125c0 42.699219-34.613281 77.3125-77.3125 77.3125s-77.3125-34.613281-77.3125-77.3125 34.613281-77.3125 77.3125-77.3125 77.3125 34.613281 77.3125 77.3125zm0 0" fill="#ffafe2"/><path d="m245.480469 0c-5.722657 0-11.292969.640625-16.664063 1.820312 34.6875 7.621094 60.652344 38.515626 60.652344 75.492188s-25.964844 67.871094-60.652344 75.492188c5.371094 1.179687 10.941406 1.820312 16.664063 1.820312 42.699219 0 77.3125-34.613281 77.3125-77.3125s-34.613281-77.3125-77.3125-77.3125zm0 0" fill="#ff94d4"/><g fill="#ff73c6"><path d="m168.589844 85.425781c.644531 6.183594 2.015625 12.152344 4.03125 17.816407l98.789062-98.785157c-5.664062-2.015625-11.632812-3.390625-17.820312-4.035156zm0 0"/><path d="m294.417969 17.457031-108.796875 108.792969c3.273437 3.996094 6.933594 7.65625 10.929687 10.925781l108.792969-108.792969c-3.269531-3.996093-6.933594-7.65625-10.925781-10.925781zm0 0"/><path d="m219.621094 150.195312c5.671875 2.011719 11.644531 3.382813 17.835937 4.019532l84.925781-84.925782c-.640624-6.191406-2.007812-12.164062-4.019531-17.835937zm0 0"/></g><path d="m467.90625 512h-444.855469c-11.035156 0-19.980469-8.945312-19.980469-19.980469 0-11.035156 8.945313-19.980469 19.980469-19.980469h444.855469c11.035156 0 19.984375 8.945313 19.984375 19.980469 0 11.035157-8.949219 19.980469-19.984375 19.980469zm0 0" fill="#ff646f"/><path d="m467.90625 472.039062h-13.078125v39.960938h13.078125c11.035156 0 19.984375-8.945312 19.984375-19.980469 0-11.035156-8.949219-19.980469-19.984375-19.980469zm0 0" fill="#ff4755"/></svg>