<svg height="512pt" viewBox="-61 0 512 512" width="512pt" xmlns="http://www.w3.org/2000/svg"><path d="m46.84375 324.324219-14.90625 167.246093h325.347656l-14.910156-167.246093zm0 0" fill="#cc98e8"/><path d="m131.613281 478.171875 5.746094-63.726563c2.667969-29.628906 27.503906-52.328124 57.25-52.328124 29.75 0 54.582031 22.699218 57.253906 52.328124l5.746094 63.726563zm0 0" fill="#c9f0ff"/><path d="m355.5 464.78125h-321.777344c-18.625 0-33.722656 15.101562-33.722656 33.726562 0 7.449219 6.039062 13.492188 13.492188 13.492188h362.238281c7.449219 0 13.492187-6.042969 13.492187-13.492188 0-18.625-15.101562-33.726562-33.722656-33.726562zm0 0" fill="#bf80e2"/><path d="m355.496094 464.78125h-28.046875c16.035156 0 29.03125 13 29.03125 29.03125v18.1875h19.246093c7.453126 0 13.496094-6.039062 13.496094-13.492188 0-18.625-15.097656-33.726562-33.726562-33.726562zm0 0" fill="#bf80e2"/><path d="m365.601562 73.972656h-341.980468v-35.875c0-21.039062 17.054687-38.097656 38.097656-38.097656h265.785156c21.042969 0 38.097656 17.058594 38.097656 38.097656zm0 0" fill="#cc98e8"/><path d="m365.300781 362.117188h-341.378906c-8.800781 0-15.929687-7.132813-15.929687-15.929688v-293.535156c0-8.796875 7.128906-15.925782 15.929687-15.925782h341.378906c8.796875 0 15.929688 7.128907 15.929688 15.925782v293.539062c0 8.792969-7.132813 15.925782-15.929688 15.925782zm0 0" fill="#c9f0ff"/><path d="m365.300781 36.726562h-32.996093c8.796874 0 15.925781 7.128907 15.925781 15.925782v309.464844h17.070312c8.796875 0 15.929688-7.132813 15.929688-15.929688v-293.535156c0-8.796875-7.132813-15.925782-15.929688-15.925782zm0 0" fill="#a7e8f1"/><path d="m365.300781 327.742188h-341.378906c-8.800781 0-15.929687-7.128907-15.929687-15.925782v34.375c0 8.796875 7.128906 15.925782 15.929687 15.925782h341.378906c8.796875 0 15.929688-7.128907 15.929688-15.925782v-34.375c0 8.796875-7.132813 15.925782-15.929688 15.925782zm0 0" fill="#a8d3d8"/><path d="m365.300781 327.742188h-17.070312v34.375h17.070312c8.796875 0 15.929688-7.128907 15.929688-15.925782v-34.375c0 8.796875-7.132813 15.925782-15.929688 15.925782zm0 0" fill="#8ebac5"/><path d="m149.453125 282.578125c0 24.945313-20.222656 45.167969-45.167969 45.167969-24.945312 0-45.167968-20.222656-45.167968-45.167969s20.222656-45.167969 45.167968-45.167969c24.945313 0 45.167969 20.222656 45.167969 45.167969zm0 0" fill="#d2f29f"/><path d="m104.285156 237.410156c-5.792968 0-11.324218 1.101563-16.414062 3.085938 16.828125 6.570312 28.753906 22.929687 28.753906 42.082031s-11.925781 35.507813-28.753906 42.078125c5.089844 1.988281 10.621094 3.089844 16.414062 3.089844 24.945313 0 45.167969-20.222656 45.167969-45.167969s-20.222656-45.167969-45.167969-45.167969zm0 0" fill="#bced6b"/><path d="m194.589844 204.328125c0 24.945313-20.222656 45.167969-45.167969 45.167969s-45.167969-20.222656-45.167969-45.167969 20.222656-45.167969 45.167969-45.167969 45.167969 20.222656 45.167969 45.167969zm0 0" fill="#fdd79b"/><path d="m149.421875 159.160156c-5.761719 0-11.261719 1.089844-16.328125 3.054688 16.875 6.546875 28.839844 22.925781 28.839844 42.113281 0 19.183594-11.96875 35.566406-28.839844 42.113281 5.066406 1.964844 10.566406 3.054688 16.328125 3.054688 24.945313 0 45.167969-20.222656 45.167969-45.167969s-20.222656-45.167969-45.167969-45.167969zm0 0" fill="#fccd7f"/><path d="m239.757812 282.578125c0 24.945313-20.222656 45.167969-45.167968 45.167969-24.945313 0-45.167969-20.222656-45.167969-45.167969s20.222656-45.167969 45.167969-45.167969c24.945312 0 45.167968 20.222656 45.167968 45.167969zm0 0" fill="#ff646f"/><path d="m194.589844 237.410156c-5.824219 0-11.386719 1.113282-16.5 3.121094 16.78125 6.589844 28.667968 22.925781 28.667968 42.046875 0 19.117187-11.886718 35.453125-28.667968 42.042969 5.113281 2.007812 10.675781 3.125 16.5 3.125 24.945312 0 45.167968-20.222656 45.167968-45.167969s-20.222656-45.167969-45.167968-45.167969zm0 0" fill="#ff4755"/><path d="m284.9375 204.328125c0 24.945313-20.222656 45.167969-45.167969 45.167969-24.945312 0-45.167969-20.222656-45.167969-45.167969s20.222657-45.167969 45.167969-45.167969c24.945313 0 45.167969 20.222656 45.167969 45.167969zm0 0" fill="#ff94d4"/><path d="m239.769531 159.160156c-5.824219 0-11.386719 1.113282-16.5 3.121094 16.78125 6.589844 28.667969 22.925781 28.667969 42.046875 0 19.117187-11.886719 35.453125-28.667969 42.042969 5.113281 2.007812 10.675781 3.125 16.5 3.125 24.945313 0 45.167969-20.222656 45.167969-45.167969s-20.222656-45.167969-45.167969-45.167969zm0 0" fill="#ff73c6"/><path d="m330.105469 282.578125c0 24.945313-20.222657 45.167969-45.167969 45.167969s-45.167969-20.222656-45.167969-45.167969 20.222657-45.167969 45.167969-45.167969 45.167969 20.222656 45.167969 45.167969zm0 0" fill="#fdd79b"/><path d="m284.9375 237.410156c-5.777344 0-11.292969 1.09375-16.371094 3.070313 16.847656 6.558593 28.796875 22.925781 28.796875 42.097656 0 19.167969-11.949219 35.535156-28.796875 42.09375 5.078125 1.976563 10.59375 3.074219 16.371094 3.074219 24.945312 0 45.167969-20.222656 45.167969-45.167969s-20.222657-45.167969-45.167969-45.167969zm0 0" fill="#fccd7f"/><path d="m239.757812 126.078125c0 24.949219-20.222656 45.167969-45.167968 45.167969-24.945313 0-45.167969-20.21875-45.167969-45.167969 0-24.945313 20.222656-45.167969 45.167969-45.167969 24.945312 0 45.167968 20.222656 45.167968 45.167969zm0 0" fill="#ff646f"/><path d="m194.589844 80.914062c-5.777344 0-11.292969 1.09375-16.371094 3.070313 16.851562 6.558594 28.796875 22.925781 28.796875 42.097656 0 19.167969-11.945313 35.535157-28.796875 42.09375 5.078125 1.976563 10.59375 3.074219 16.371094 3.074219 24.945312 0 45.167968-20.222656 45.167968-45.167969 0-24.945312-20.222656-45.167969-45.167968-45.167969zm0 0" fill="#ff4755"/><path d="m332.578125 36.726562h32.722656.277344c-.722656-20.40625-17.492187-36.726562-38.074219-36.726562h-32.996094c20.578126 0 37.347657 16.320312 38.070313 36.726562zm0 0" fill="#bf80e2"/></svg>