<svg height="512.00034pt" viewBox="0 0 512.00034 512.00034" width="512.00034pt" xmlns="http://www.w3.org/2000/svg"><path d="m475.042969 114.007812c-19.265625-19.265624-13.339844-25.1875-32.605469-44.453124-19.265625-19.265626-25.1875-13.339844-44.453125-32.601563-14.84375-14.847656-14.742187-21.773437-22.726563-32.988281-3.4375-4.820313-10.351562-5.355469-13.714843-1-36.769531 47.625-22.703125 126.671875-22.703125 126.671875l1.160156 22.558593 19.804688 19.804688 22.558593 1.160156s79.046875 14.066406 126.671875-22.703125c4.355469-3.363281 3.824219-10.277343-1-13.714843-11.214844-7.988282-18.144531-7.886719-32.992187-22.734376zm0 0" fill="#cc98e8"/><path d="m508.035156 136.742188c-7.296875-5.199219-12.78125-6.96875-19.808594-11.664063-47.785156 35.757813-128.824218 25.121094-128.824218 25.121094l-19.558594-1.007813.15625 3.003906 19.804688 19.800782 22.558593 1.164062s79.042969 14.0625 126.667969-22.707031c4.359375-3.359375 3.824219-10.273437-.996094-13.710937zm0 0" fill="#bf80e2"/><path d="m114.007812 475.042969c-19.265624-19.265625-25.1875-13.339844-44.453124-32.605469-19.265626-19.265625-13.339844-25.1875-32.601563-44.453125-14.847656-14.84375-21.773437-14.742187-32.988281-22.726563-4.820313-3.4375-5.355469-10.351562-1-13.714843 47.625-36.769531 126.671875-22.703125 126.671875-22.703125l22.558593 1.160156 19.804688 19.804688 1.160156 22.558593s14.066406 79.046875-22.703125 126.671875c-3.363281 4.355469-10.277343 3.824219-13.714843-1-7.988282-11.214844-7.886719-18.144531-22.734376-32.992187zm0 0" fill="#cc98e8"/><g fill="#bf80e2"><path d="m150.457031 509.035156c36.769531-47.625 22.703125-126.671875 22.703125-126.671875l-1.160156-22.558593-19.804688-19.804688-3-.152344 1.003907 19.554688s10.878906 81.113281-25.097657 128.859375c4.675782 7.011719 6.453126 12.488281 11.640626 19.773437 3.4375 4.820313 10.351562 5.355469 13.714843 1zm0 0"/><path d="m353.601562 154.550781c-.671874 0-1.355468-.089843-2.035156-.273437-4.117187-1.121094-6.546875-5.367188-5.425781-9.484375 3.476563-12.792969 9.957031-36.609375 24.855469-56.742188 2.539062-3.429687 7.375-4.152343 10.808594-1.617187 3.429687 2.539062 4.152343 7.378906 1.613281 10.808594-13.171875 17.800781-18.929688 38.960937-22.367188 51.605468-.933593 3.441406-4.050781 5.703125-7.449219 5.703125zm0 0"/><path d="m368.589844 170.058594c-3.433594 0-6.566406-2.308594-7.472656-5.789063-1.070313-4.128906 1.40625-8.347656 5.539062-9.417969 11.773438-3.058593 33.695312-8.75 52.113281-22.6875 3.40625-2.574218 8.25-1.902343 10.824219 1.496094 2.574219 3.402344 1.902344 8.25-1.5 10.824219-20.875 15.800781-44.738281 21.996094-57.554688 25.324219-.652343.167968-1.304687.25-1.949218.25zm0 0"/><path d="m94.628906 383.957031c-2.425781 0-4.808594-1.136719-6.316406-3.265625-2.464844-3.484375-1.636719-8.304687 1.847656-10.769531 19.6875-13.921875 42.5625-20.140625 54.847656-23.484375 4.121094-1.113281 8.363282 1.3125 9.484376 5.429688 1.121093 4.117187-1.308594 8.363281-5.429688 9.484374-12.164062 3.304688-32.523438 8.84375-49.980469 21.1875-1.355469.960938-2.914062 1.417969-4.453125 1.417969zm0 0"/><path d="m140.050781 429.398438c-1.5625 0-3.136719-.46875-4.5-1.449219-3.46875-2.492188-4.261719-7.316407-1.769531-10.785157 12.914062-17.984374 18.359375-38.945312 21.28125-50.210937 1.074219-4.128906 5.292969-6.609375 9.421875-5.535156 4.128906 1.070312 6.609375 5.289062 5.535156 9.421875-3.175781 12.234375-9.089843 35.015625-23.6875 55.339844-1.507812 2.101562-3.878906 3.21875-6.28125 3.21875zm0 0"/></g><path d="m362.671875 149.324219c-58.914063-58.917969-154.4375-58.917969-213.351563 0-58.917968 58.914062-58.917968 154.4375 0 213.351562 58.914063 58.917969 154.4375 58.917969 213.351563 0 58.917969-58.914062 58.917969-154.4375 0-213.351562zm0 0" fill="#ff94d4"/><path d="m362.675781 149.320312c-3.941406-3.9375-8.042969-7.617187-12.289062-11.03125 47.621093 59.238282 43.941406 146.085938-11.035157 201.0625-54.972656 54.976563-141.820312 58.652344-201.0625 11.03125 3.414063 4.25 7.09375 8.351563 11.035157 12.292969 58.914062 58.917969 154.4375 58.917969 213.355469 0 58.914062-58.914062 58.914062-154.4375-.003907-213.355469zm0 0" fill="#ff73c6"/><path d="m149.324219 362.675781c4.359375 4.363281 8.925781 8.394531 13.660156 12.109375v-237.570312c-4.734375 3.714844-9.300781 7.746094-13.660156 12.109375-58.917969 58.914062-58.917969 154.4375 0 213.351562zm0 0" fill="#ff73c6"/><path d="m349.152344 137.320312v237.355469c4.683594-3.683593 9.203125-7.679687 13.523437-12 58.917969-58.914062 58.917969-154.4375 0-213.355469-4.320312-4.316406-8.839843-8.3125-13.523437-12zm0 0" fill="#ff73c6"/><path d="m362.675781 149.320312c-3.929687-3.929687-8.027343-7.589843-12.265625-10.996093 44.585938 55.5 44.167969 135.207031-1.261718 190.25v46.101562c4.6875-3.6875 9.207031-7.679687 13.527343-12 58.917969-58.914062 58.917969-154.4375 0-213.355469zm0 0" fill="#ff4fb8"/><path d="m225.039062 108.339844v295.320312c20.449219 4.269532 41.609376 4.257813 62.058594-.027344v-295.265624c-20.449218-4.285157-41.609375-4.296876-62.058594-.027344zm0 0" fill="#ff73c6"/><path d="m287.09375 373.421875c-19.878906 7.675781-41.054688 10.984375-62.054688 9.925781v20.3125l.003907.011719c20.300781 4.234375 41.308593 4.257813 61.617187.0625.144532-.039063.289063-.070313.433594-.101563zm0 0" fill="#ff4fb8"/></svg>