<svg height="512pt" viewBox="-60 0 512 512" width="512pt" xmlns="http://www.w3.org/2000/svg"><path d="m308.832031 512c-15.277343 0-30.722656-5.019531-43.621093-15.328125-12.792969 4.03125-26.210938 6.117187-39.679688 6.117187h-59.804688c-13.480468 0-26.910156-2.089843-39.710937-6.128906-12.902344 10.316406-28.351563 15.339844-43.636719 15.339844-26.871094 0-51.664062-15.695312-63.171875-39.988281l-11.96875-25.277344c-9.546875-20.160156-9.65625-43.332031-.292969-63.578125 5.402344-11.683594 13.589844-21.59375 23.691407-29-17.320313-13.40625-28.152344-34.371094-28.152344-57.195312 0-39.839844 32.414063-72.25 72.25-72.25.125 0 .289063-.03125.492187-.089844 3.703126-1.054688 5.203126-5.53125 3.074219-8.738282-16.710937-25.183593-21.648437-55.855468-17.144531-85.398437-14.191406-14.078125-22.441406-33.371094-22.441406-54.121094 0-42.105469 34.257812-76.363281 76.363281-76.363281 18.425781 0 36.113281 6.792969 49.816406 18.546875 10.019531-2.320313 20.296875-3.492187 30.734375-3.492187s20.714844 1.171874 30.738282 3.492187c13.316406-11.492187 30.328124-18.078125 48.539062-18.363281 41.265625-.644532 75.304688 30.992187 77.484375 72.207031 1.175781 22.273437-7.179687 43.191406-22.273437 58.203125 4.507812 29.75-.578126 60.300781-17.164063 85.289062-2.128906 3.207032-.628906 7.683594 3.078125 8.738282.199219.058594.367188.089844.492188.089844 39.835937 0 72.25 32.410156 72.25 72.25 0 22.835937-10.839844 43.808593-28.171876 57.210937 10.085938 7.40625 18.265626 17.3125 23.664063 28.984375 9.363281 20.246094 9.257813 43.417969-.289063 63.578125l-11.972656 25.277344c-11.503906 24.289062-36.300781 39.988281-63.171875 39.988281 0 0 .003907 0 0 0zm0 0" fill="#ff646f"/><path d="m323.324219 76.535156c0 26.0625-21.125 47.1875-47.1875 47.1875s-47.1875-21.125-47.1875-47.1875c0-26.058594 21.125-47.1875 47.1875-47.1875s47.1875 21.128906 47.1875 47.1875zm0 0" fill="#fc2b3a"/><path d="m162.269531 76.363281c0 26.058594-21.128906 47.1875-47.191406 47.1875-26.058594 0-47.1875-21.128906-47.1875-47.1875 0-26.0625 21.128906-47.1875 47.1875-47.1875 26.0625 0 47.191406 21.125 47.191406 47.1875zm0 0" fill="#fc2b3a"/><path d="m225.53125 473.617188h-59.804688c-56.605468 0-102.496093-45.890626-102.496093-102.496094v-35.511719c0-73.121094 59.277343-132.398437 132.398437-132.398437s132.398438 59.277343 132.398438 132.398437v35.511719c0 56.605468-45.886719 102.496094-102.496094 102.496094zm0 0" fill="#ff4755"/><path d="m255.367188 239.4375c8.292968 8.050781 19.167968 12.804688 30.710937 13.335938.167969.007812.335937.015624.503906.023437 5.417969.3125 10.578125 1.644531 15.292969 3.804687-24.132812-32.402343-62.738281-53.390624-106.246094-53.390624-3.875 0-7.703125.175781-11.492187.5 27.476562 4.375 52.140625 17.195312 71.230469 35.726562zm0 0" fill="#fc2b3a"/><path d="m181.695312 413.152344c-17.863281 0-32.390624-14.53125-32.390624-32.394532v-41.078124c0-25.542969 20.78125-46.324219 46.324218-46.324219 25.542969 0 46.324219 20.78125 46.324219 46.324219v41.078124c0 17.863282-14.53125 32.394532-32.390625 32.394532zm0 0" fill="#fc2b3a"/><path d="m302.480469 151.082031c0 59.015625-47.839844 90.835938-106.851563 90.835938-59.011718 0-106.851562-31.820313-106.851562-90.835938 0-59.011719 47.839844-106.851562 106.851562-106.851562 59.011719 0 106.851563 47.839843 106.851563 106.851562zm0 0" fill="#ff4755"/><path d="m195.628906 44.230469c-5.519531 0-10.941406.417969-16.234375 1.226562 51.308594 7.820313 90.621094 52.132813 90.621094 105.628907 0 53.492187-39.3125 84.644531-90.621094 90.003906 5.292969.550781 10.714844.832031 16.234375.832031 59.011719 0 106.851563-31.824219 106.851563-90.835937 0-59.015626-47.835938-106.855469-106.851563-106.855469zm0 0" fill="#fc2b3a"/><path d="m359.597656 296.960938c0 23.789062-19.285156 43.074218-43.074218 43.074218-23.792969 0-43.078126-19.285156-43.078126-43.074218 0-23.789063 19.285157-43.074219 43.078126-43.074219 23.789062 0 43.074218 19.285156 43.074218 43.074219zm0 0" fill="#ff646f"/><path d="m117.8125 296.960938c0 23.789062-19.285156 43.074218-43.074219 43.074218-23.792969 0-43.078125-19.285156-43.078125-43.074218 0-23.789063 19.285156-43.074219 43.078125-43.074219 23.789063 0 43.074219 19.285156 43.074219 43.074219zm0 0" fill="#ff4755"/><g fill="#e61f2d"><path d="m255.824219 134.511719c0 4.488281-3.640625 8.125-8.128907 8.125-4.488281 0-8.125-3.636719-8.125-8.125s3.636719-8.128907 8.125-8.128907c4.488282 0 8.128907 3.640626 8.128907 8.128907zm0 0"/><path d="m151.800781 134.511719c0 4.488281-3.636719 8.125-8.125 8.125s-8.128906-3.636719-8.128906-8.125 3.640625-8.128907 8.128906-8.128907 8.125 3.640626 8.125 8.128907zm0 0"/><path d="m220.730469 202.457031-9.621094-2.976562c-4.496094-1.390625-7.550781-5.421875-7.691406-10.101563.023437-2.082031.003906 7.230469-.007813-20.300781 0-4.269531-3.457031-7.726563-7.726562-7.726563-4.265625 0-7.726563 3.457032-7.726563 7.726563.003907 15.457031 0 19.996094.003907 20.300781-.140626 4.679688-3.195313 8.710938-7.691407 10.101563l-9.621093 2.976562c-4.078126 1.261719-6.359376 5.589844-5.101563 9.664063 1.027344 3.316406 4.082031 5.445312 7.382813 5.445312 1.992187 0 2.695312-.578125 11.90625-3.324218 4.210937-1.300782 7.898437-3.5625 10.851562-6.503907 2.957031 2.941407 6.644531 5.203125 10.855469 6.503907 9.207031 2.746093 9.910156 3.324218 11.90625 3.324218 3.296875 0 6.351562-2.128906 7.378906-5.445312 1.261719-4.074219-1.019531-8.402344-5.097656-9.664063zm0 0"/></g><path d="m92.945312 481.429688c-19.007812 5.101562-38.945312-4.117188-47.367187-21.90625l-11.972656-25.277344c-12.238281-25.839844 1.917969-56.453125 29.53125-63.867188 27.613281-7.410156 55.195312 12 57.546875 40.492188l2.296875 27.875c1.613281 19.613281-11.027344 37.578125-30.035157 42.683594zm0 0" fill="#ff4755"/><path d="m74.738281 253.886719c-5.742187 0-11.21875 1.121093-16.226562 3.160156 15.75 6.40625 26.851562 21.863281 26.851562 39.914063 0 18.050781-11.101562 33.507812-26.851562 39.914062 5.007812 2.039062 10.484375 3.160156 16.226562 3.160156 23.789063 0 43.074219-19.28125 43.074219-43.074218 0-23.789063-19.285156-43.074219-43.074219-43.074219zm0 0" fill="#fc2b3a"/><path d="m122.980469 438.746094-2.296875-27.875c-2.351563-28.496094-29.933594-47.902344-57.546875-40.492188-1.484375.398438-2.933594.867188-4.335938 1.394532 15.824219 6.023437 27.910157 20.65625 29.429688 39.097656l2.296875 27.875c1.449218 17.59375-8.566406 33.855468-24.363282 40.703125 8.210938 3.566406 17.605469 4.441406 26.78125 1.976562 19.007813-5.101562 31.648438-23.066406 30.035157-42.679687zm0 0" fill="#fc2b3a"/><path d="m298.265625 481.429688c19.007813 5.101562 38.945313-4.117188 47.371094-21.90625l11.972656-25.277344c12.238281-25.839844-1.917969-56.453125-29.53125-63.867188-27.617187-7.410156-55.199219 12-57.546875 40.492188l-2.296875 27.875c-1.617187 19.613281 11.023437 37.578125 30.03125 42.683594zm0 0" fill="#ff646f"/><path d="m316.519531 253.886719c-4.808593 0-9.433593.789062-13.753906 2.242187 15.230469 6.640625 25.878906 21.828125 25.878906 39.503906 0 18.980469-12.277343 35.09375-29.320312 40.832032 5.265625 2.296875 11.082031 3.570312 17.195312 3.570312 23.792969 0 43.078125-19.285156 43.078125-43.074218 0-23.789063-19.285156-43.074219-43.078125-43.074219zm0 0" fill="#ff4755"/><path d="m328.074219 370.378906c-8.777344-2.355468-17.554688-2-25.515625.496094 23.980468 9.722656 35.503906 37.957031 24.097656 62.042969l-11.96875 25.277343c-4.742188 10.015626-13.132812 17.3125-22.953125 20.867188 2.078125.960938 4.257813 1.753906 6.53125 2.367188 19.007813 5.101562 38.945313-4.117188 47.371094-21.90625l11.972656-25.277344c12.238281-25.839844-1.917969-56.453125-29.535156-63.867188zm0 0" fill="#ff4755"/></svg>