<svg height="511pt" viewBox="0 1 511 511.99719" width="511pt" xmlns="http://www.w3.org/2000/svg"><path d="m5.230469 507.265625c-6.308594-6.308594-6.308594-16.535156 0-22.84375l288.566406-288.566406 22.84375 22.84375-288.566406 288.566406c-6.308594 6.308594-16.535157 6.308594-22.84375 0zm0 0" fill="#deecf1"/><path d="m457.054688 55.4375c-73.917969-73.917969-193.761719-73.917969-267.679688 0s-73.917969 193.765625 0 267.683594c73.917969 73.917968 193.761719 73.917968 267.679688 0 73.917968-73.917969 73.917968-193.765625 0-267.683594zm0 0" fill="#ff8088"/><path d="m435.9375 76.558594c-62.011719-62.011719-162.976562-62.46875-225.441406 0-62.253906 62.253906-62.226563 163.210937 0 225.441406 62.304687 62.304688 163.253906 62.1875 225.441406 0 62.308594-62.308594 62.191406-163.253906 0-225.441406zm-112.398438 111.511718c-.003906-.007812-.007812-.015624-.007812-.019531-.007812 0-.015625.003907-.023438.003907.003907-.003907.007813-.011719.011719-.019532-.007812-.003906-.015625-.007812-.023437-.011718.007812 0 .015625-.003907.023437-.007813-.003906-.003906-.007812-.011719-.007812-.019531.007812.003906.015625.007812.019531.007812.003906-.003906.007812-.011718.011719-.019531 0 .007813.003906.015625.007812.023437.007813-.003906.015625-.007812.023438-.007812-.003907.003906-.007813.011719-.011719.019531.007812.003907.015625.007813.019531.007813-.003906.003906-.011719.007812-.019531.011718 0 .003907.003906.011719.007812.019532-.007812-.003906-.015624-.007813-.023437-.007813-.003906.007813-.007813.011719-.007813.019531zm0 0" fill="#ff646f"/><path d="m297.042969 162.800781c.007812-.003906.015625-.007812.023437-.007812-.007812-.003907-.015625-.007813-.023437-.011719.003906-.007812.007812-.015625.011719-.023438-.007813.003907-.015626.003907-.023438.007813 0-.007813-.003906-.015625-.007812-.023437-.003907.007812-.003907.015624-.011719.023437-.003907-.003906-.011719-.007813-.019531-.011719 0 .007813.003906.015625.007812.023438-.007812.003906-.015625.003906-.023438.007812.007813.003906.015626.007813.023438.011719-.003906.007813-.007812.011719-.011719.019531.007813 0 .015625-.003906.023438-.007812 0 .007812.003906.015625.007812.023437.003907-.003906.007813-.011719.011719-.019531.003906.003906.011719.003906.019531.007812-.003906-.007812-.003906-.011718-.007812-.019531zm0 0" fill="#ff4755"/><path d="m435.9375 76.558594c-.230469-.234375-.46875-.457032-.703125-.6875 40.492187 63.484375 33.105469 148.796875-22.421875 204.324218-53.359375 53.359376-134.40625 62.351563-197.089844 26.789063 62.601563 57.261719 159.734375 55.496094 220.21875-4.984375 62.304688-62.308594 62.1875-163.253906-.003906-225.441406zm0 0" fill="#ff4755"/><path d="m343.765625 168.730469c-11.351563-11.351563-29.753906-11.351563-41.101563 0-11.351562 11.347656-11.351562 29.75 0 41.097656 11.347657 11.351563 29.75 11.351563 41.101563 0 11.347656-11.347656 11.347656-29.75 0-41.097656zm0 0" fill="#fde6bf"/><g fill="#fef1da"><path d="m441.109375 296.574219c-45.425781-10.011719-83.605469-40.1875-105.652344-80.925781-7.285156 3.378906-15.679687 3.578124-23.097656.59375-13.1875 44.554687-7.371094 93.054687 17.957031 132.285156 38.398438-1.699219 76.300782-17.207032 105.621094-46.527344 1.777344-1.777344 3.496094-3.589844 5.171875-5.425781zm0 0"/><path d="m435.9375 76.558594c-1.410156-1.414063-2.851562-2.78125-4.300781-4.128906-10.578125 45.152343-41.128907 82.949218-82.085938 104.539062 3.222657 6.890625 3.589844 14.785156 1.105469 21.90625 44.261719 13.433594 92.539062 8.0625 131.8125-16.621094-1.683594-38.425781-17.191406-76.355468-46.53125-105.695312zm0 0"/><path d="m333.972656 162.273438c13.859375-44.3125 8.804688-92.796876-15.675781-132.324219-39.140625 1.203125-77.925781 16.730469-107.800781 46.605469-1.066406 1.070312-2.113282 2.148437-3.140625 3.238281 45.484375 10.46875 83.570312 41.191406 105.238281 82.433593 6.859375-2.691406 14.53125-2.675781 21.378906.046876zm0 0"/><path d="m296.136719 199.832031c-2.824219-7.261719-2.625-15.425781.609375-22.554687-44.621094-13.640625-93.355469-8.152344-132.851563 16.980468 1.214844 39.121094 16.742188 77.878907 46.601563 107.742188 1.433594 1.433594 2.894531 2.820312 4.371094 4.191406 9.890624-45.765625 40.246093-84.238281 81.269531-106.359375zm0 0"/></g><path d="m458.039062 194.6875c8.429688-3.386719 16.613282-7.519531 24.429688-12.433594-1.683594-38.425781-17.1875-76.359375-46.53125-105.699218-.234375-.234376-.472656-.460938-.707031-.691407 22.808593 35.761719 30.429687 78.4375 22.808593 118.824219zm0 0" fill="#fde6bf"/><path d="m441.109375 296.574219c-11.652344-2.566407-22.820313-6.476563-33.367187-11.53125-25.5625 23.5-56.785157 37.425781-89.066407 41.765625 3.273438 7.480468 7.140625 14.75 11.636719 21.71875 38.402344-1.699219 76.304688-17.207032 105.625-46.527344 1.777344-1.777344 3.496094-3.589844 5.171875-5.425781zm0 0" fill="#fde6bf"/></svg>