<svg height="512.00093pt" viewBox="0 0 512.00093 512.00093" width="512.00093pt" xmlns="http://www.w3.org/2000/svg"><path d="m474.121094 116.847656c-19.746094-19.746094-13.671875-25.816406-33.417969-45.5625-19.742187-19.742187-25.816406-13.667968-45.558594-33.414062-15.214843-15.214844-15.105469-22.316406-23.296875-33.808594-3.519531-4.941406-10.605468-5.484375-14.050781-1.023438-37.6875 48.8125-23.269531 129.828126-23.269531 129.828126l1.1875 23.121093 20.296875 20.296875 23.121093 1.1875s81.015626 14.417969 129.828126-23.269531c4.464843-3.445313 3.917968-10.535156-1.023438-14.054687-11.496094-8.1875-18.597656-8.082032-33.816406-23.300782zm0 0" fill="#cc98e8"/><path d="m507.9375 140.148438c-7.171875-5.109376-12.636719-6.988282-19.425781-11.378907-48.859375 37.371094-132.445313 25.636719-132.445313 25.636719l-20.484375-1.054688.132813 2.636719 20.296875 20.296875 23.121093 1.1875s81.015626 14.417969 129.828126-23.269531c4.460937-3.445313 3.917968-10.535156-1.023438-14.054687zm0 0" fill="#bf80e2"/><path d="m116.847656 474.121094c-19.746094-19.746094-25.816406-13.671875-45.5625-33.417969-19.742187-19.742187-13.667968-25.816406-33.414062-45.558594-15.214844-15.214843-22.316406-15.105469-33.808594-23.296875-4.941406-3.519531-5.484375-10.605468-1.023438-14.050781 48.8125-37.6875 129.828126-23.269531 129.828126-23.269531l23.121093 1.1875 20.296875 20.296875 1.1875 23.121093s14.417969 81.015626-23.269531 129.828126c-3.445313 4.464843-10.535156 3.917968-14.054687-1.023438-8.1875-11.496094-8.082032-18.597656-23.300782-33.816406zm0 0" fill="#cc98e8"/><g fill="#bf80e2"><path d="m154.203125 508.960938c37.683594-48.8125 23.269531-129.828126 23.269531-129.828126l-1.191406-23.121093-20.292969-20.296875-2.59375-.132813 1.054688 20.527344s11.757812 83.484375-25.726563 132.324219c4.421875 6.828125 6.296875 12.304687 11.425782 19.503906 3.519531 4.941406 10.609374 5.484375 14.054687 1.023438zm0 0"/><path d="m352.613281 151.933594c-.710937 0-1.433593-.097656-2.152343-.304688-4.097657-1.1875-6.460938-5.472656-5.273438-9.570312 4.296875-14.855469 11.757812-36.71875 26.878906-54.96875 2.71875-3.289063 7.589844-3.742188 10.878906-1.019532 3.285157 2.722657 3.742188 7.59375 1.019532 10.878907-13.28125 16.03125-20.019532 35.875-23.933594 49.402343-.980469 3.382813-4.066406 5.582032-7.417969 5.582032zm0 0"/><path d="m373.917969 173.25c-3.371094 0-6.472657-2.230469-7.433594-5.636719-1.15625-4.109375 1.238281-8.375 5.347656-9.53125 13.277344-3.734375 32.828125-10.300781 49.300781-24.136719 3.269532-2.742187 8.144532-2.320312 10.886719.949219 2.742188 3.269531 2.320313 8.140625-.949219 10.886719-18.753906 15.753906-40.402343 23.054688-55.054687 27.175781-.699219.199219-1.402344.292969-2.097656.292969zm0 0"/><path d="m90.996094 383.605469c-2.257813 0-4.492188-.984375-6.019532-2.875-2.679687-3.320313-2.160156-8.183594 1.160157-10.863281 18.066406-14.574219 39.433593-21.835938 53.9375-26.035157 4.101562-1.179687 8.382812 1.175781 9.570312 5.277344 1.183594 4.097656-1.175781 8.382813-5.277343 9.570313-13.21875 3.824218-32.632813 10.390624-48.523438 23.210937-1.429688 1.15625-3.144531 1.714844-4.847656 1.714844zm0 0"/><path d="m139.066406 431.027344c-1.703125 0-3.421875-.5625-4.851562-1.71875-3.320313-2.683594-3.832032-7.546875-1.152344-10.863282 13.113281-16.222656 19.425781-35.144531 23.035156-47.96875 1.15625-4.105468 5.421875-6.503906 9.527344-5.34375 4.109375 1.15625 6.503906 5.421876 5.347656 9.53125-3.976562 14.132813-10.988281 35.058594-25.890625 53.492188-1.527343 1.890625-3.761719 2.871094-6.015625 2.871094zm0 0"/></g><path d="m169.015625 384.296875-41.3125-41.3125c-39.066406-39.066406-39.066406-102.40625 0-141.46875l73.8125-73.8125c39.0625-39.066406 102.402344-39.066406 141.46875 0l41.3125 41.3125c39.066406 39.066406 39.066406 102.402344 0 141.46875l-73.8125 73.8125c-39.066406 39.066406-102.402344 39.066406-141.46875 0zm0 0" fill="#6bdae8"/><path d="m384.296875 169.015625-22.960937-22.960937c39.066406 39.066406 39.066406 102.402343 0 141.46875l-73.8125 73.8125c-39.066407 39.066406-102.402344 39.066406-141.46875 0l22.960937 22.960937c39.066406 39.066406 102.402344 39.066406 141.46875 0l73.8125-73.8125c39.066406-39.066406 39.066406-102.402344 0-141.46875zm0 0" fill="#2dd2e3"/><path d="m201.515625 127.703125-73.8125 73.8125c-8.902344 8.898437-15.773437 19.054687-20.617187 29.898437l173.496093 173.5c10.84375-4.847656 21.003907-11.71875 29.902344-20.617187l73.8125-73.8125c8.898437-8.898437 15.769531-19.058594 20.617187-29.902344l-173.5-173.496093c-10.84375 4.84375-21 11.714843-29.898437 20.617187zm0 0" fill="#fef1da"/><path d="m361.335938 287.523438-73.8125 73.8125c-8.898438 8.898437-19.058594 15.769531-29.902344 20.613281l22.960937 22.964843c10.84375-4.847656 21.003907-11.71875 29.902344-20.617187l73.8125-73.8125c8.898437-8.898437 15.769531-19.058594 20.617187-29.902344l-22.964843-22.960937c-4.84375 10.84375-11.714844 21.003906-20.613281 29.902344zm0 0" fill="#fde6bf"/><path d="m171.300781 247.171875c-1.976562 0-3.957031-.753906-5.464843-2.261719-3.015626-3.019531-3.015626-7.910156 0-10.929687l68.148437-68.144531c3.015625-3.015626 7.90625-3.015626 10.925781 0 3.015625 3.015624 3.015625 7.910156 0 10.925781l-68.144531 68.148437c-1.511719 1.507813-3.488281 2.261719-5.464844 2.261719zm0 0" fill="#6bdae8"/><path d="m221.925781 297.800781c-1.976562 0-3.953125-.757812-5.464843-2.265625-3.015626-3.015625-3.015626-7.90625 0-10.925781l68.148437-68.148437c3.019531-3.015626 7.910156-3.015626 10.929687 0 3.015626 3.019531 3.015626 7.910156 0 10.929687l-68.148437 68.144531c-1.511719 1.507813-3.488281 2.265625-5.464844 2.265625zm0 0" fill="#6bdae8"/><path d="m272.550781 348.425781c-1.976562 0-3.953125-.753906-5.460937-2.261719-3.019532-3.019531-3.019532-7.910156 0-10.929687l68.144531-68.144531c3.019531-3.015625 7.910156-3.015625 10.929687 0 3.015626 3.015625 3.015626 7.90625 0 10.925781l-68.148437 68.148437c-1.507813 1.507813-3.484375 2.261719-5.464844 2.261719zm0 0" fill="#6bdae8"/></svg>