<svg height="511pt" viewBox="1 1 511.99975 511" width="511pt" xmlns="http://www.w3.org/2000/svg"><path d="m5.234375 507.261719c-6.980469-6.980469-6.980469-18.300781 0-25.28125l319.382813-319.382813 25.28125 25.28125-319.378907 319.382813c-6.984375 6.980469-18.300781 6.980469-25.285156 0zm0 0" fill="#deecf1"/><path d="m468.160156 44.335938c-58.449218-58.449219-153.210937-58.449219-211.65625 0-58.449218 58.445312-58.449218 153.207031 0 211.65625 58.445313 58.445312 153.207032 58.445312 211.65625 0 58.445313-58.449219 58.445313-153.210938 0-211.65625zm0 0" fill="#ff9838"/><g fill="#ff8709"><path d="m468.164062 44.332031c-3.871093-3.871093-7.902343-7.484375-12.070312-10.84375 47.34375 58.769531 43.730469 145.007813-10.847656 199.585938-54.574219 54.578125-140.8125 58.191406-199.585938 10.84375 3.359375 4.171875 6.972656 8.203125 10.84375 12.074219 58.449219 58.445312 153.210938 58.445312 211.660156 0 58.449219-58.449219 58.449219-153.210938 0-211.660157zm0 0"/><path d="m453.96875 276.308594c-82.109375-62.902344-154.882812-135.667969-217.777344-217.78125-7.007812-9.144532-5.21875-22.242188 4.019532-29.121094.113281-.082031.222656-.164062.335937-.246094 9.019531-6.714844 21.785156-4.976562 28.625 3.949219 60.726563 79.246094 130.96875 149.488281 210.210937 210.214844 8.929688 6.839843 10.671876 19.605469 3.953126 28.625-.082032.113281-.164063.222656-.25.335937-6.875 9.238282-19.972657 11.027344-29.117188 4.023438zm0 0"/></g></svg>